<?xml version="1.0" encoding="UTF-8"?>
<!DOCTYPE svg PUBLIC "-//W3C//DTD SVG 1.1//EN" "http://www.w3.org/Graphics/SVG/1.1/DTD/svg11.dtd">
<svg xmlns="http://www.w3.org/2000/svg" version="1.1" width="279px" height="282px" style="shape-rendering:geometricPrecision; text-rendering:geometricPrecision; image-rendering:optimizeQuality; fill-rule:evenodd; clip-rule:evenodd" xmlns:xlink="http://www.w3.org/1999/xlink">
<g><path style="opacity:1" fill="#fdfdfd" d="M -0.5,-0.5 C 92.5,-0.5 185.5,-0.5 278.5,-0.5C 278.5,93.5 278.5,187.5 278.5,281.5C 185.5,281.5 92.5,281.5 -0.5,281.5C -0.5,187.5 -0.5,93.5 -0.5,-0.5 Z"/></g>
<g><path style="opacity:1" fill="#050504" d="M 116.5,95.5 C 122.464,94.6932 128.464,94.3599 134.5,94.5C 154.275,98.1057 166.441,109.772 171,129.5C 171.5,153.831 171.667,178.164 171.5,202.5C 200.222,204.07 218.389,191.07 226,163.5C 226.667,144.167 226.667,124.833 226,105.5C 223.359,94.053 217.525,84.553 208.5,77C 192.833,65.3333 177.167,53.6667 161.5,42C 145.735,31.9455 129.402,30.9455 112.5,39C 93.1667,53.3333 73.8333,67.6667 54.5,82C 46.0752,89.6799 40.9085,99.1799 39,110.5C 38.6667,144.833 38.3333,179.167 38,213.5C 35.5712,218.202 31.7379,220.035 26.5,219C 24,217.833 22.1667,216 21,213.5C 20.8333,195.833 20.6667,178.167 20.5,160.5C 20.3711,140.798 20.8711,121.131 22,101.5C 25.3118,88.7025 31.8118,77.8692 41.5,69C 59.3459,55.9097 77.0126,42.5764 94.5,29C 115.24,14.1151 137.574,11.4485 161.5,21C 183.199,35.1984 204.199,50.3651 224.5,66.5C 234.594,76.1108 241.094,87.7775 244,101.5C 244.667,123.5 244.667,145.5 244,167.5C 233.838,204.145 209.671,221.811 171.5,220.5C 171.667,232.505 171.5,244.505 171,256.5C 168.185,262.169 163.685,264.002 157.5,262C 155.622,260.457 154.122,258.624 153,256.5C 152.5,244.505 152.333,232.505 152.5,220.5C 120.733,220.373 99.5667,205.373 89,175.5C 86.9813,165.79 86.148,155.957 86.5,146C 83.5878,128.84 88.5878,114.507 101.5,103C 105.964,99.4345 110.964,96.9345 116.5,95.5 Z"/></g>
<g><path style="opacity:1" fill="#525252" d="M 134.5,94.5 C 128.464,94.3599 122.464,94.6932 116.5,95.5C 119.695,93.9704 123.195,93.3037 127,93.5C 129.69,93.5029 132.19,93.8362 134.5,94.5 Z"/></g>
<g><path style="opacity:1" fill="#f6ca24" d="M 120.5,112.5 C 135.201,109.767 145.701,115.1 152,128.5C 152.5,153.164 152.667,177.831 152.5,202.5C 127.194,202.27 111.361,189.936 105,165.5C 104.333,153.5 104.333,141.5 105,129.5C 107.936,121.734 113.102,116.067 120.5,112.5 Z"/></g>
</svg>
